<?xml version="1.0" encoding="utf-8"?>
<!-- Generator: Adobe Illustrator 24.3.0, SVG Export Plug-In . SVG Version: 6.00 Build 0)  -->
<svg version="1.1" id="Layer" xmlns="http://www.w3.org/2000/svg" xmlns:xlink="http://www.w3.org/1999/xlink" x="0px" y="0px"
	 viewBox="0 0 512 512" style="enable-background:new 0 0 512 512;" xml:space="preserve">
<style type="text/css">
	.st0{fill:#E7E7E5;}
</style>
<path class="st0" d="M256,64c-8.8,0-16,7.2-16,16v319.2L123.6,277c-6.1-6.4-16.2-6.7-22.6-0.6c-6.4,6.1-6.6,16.2-0.6,22.6l133,139.6
	c6,6,14.1,9.4,22.6,9.4c8.5,0,16.6-3.3,22.9-9.7L411.6,299c6.1-6.4,5.8-16.5-0.6-22.6c-6.4-6.1-16.5-5.8-22.6,0.6L272,399.7V80
	C272,71.2,264.8,64,256,64L256,64z"/>
</svg>
